<?xml version="1.0" encoding="UTF-8"?>
<svg id="Layer_1" data-name="Layer 1" xmlns="http://www.w3.org/2000/svg" viewBox="0 0 148.5 121.98">
  <defs>
    <style>
      .cls-1 {
        fill: #071a2b;
      }
    </style>
  </defs>
  <path class="cls-1" d="M146.19,51.65h-14.21C127.5,23.79,103.37,2.51,74.25,2.51S20.99,23.79,16.52,51.65H2.31v3.5h13.75c-.19,1.92-.29,3.87-.29,5.84,0,32.3,26.18,58.48,58.48,58.48s58.48-26.18,58.48-58.48c0-1.97-.1-3.92-.29-5.84h13.75v-3.5ZM74.25,6.01c27.13,0,49.72,19.76,54.17,45.64h-36.19l-17.98-31.14-17.98,31.14H20.08C24.53,25.77,47.12,6.01,74.25,6.01ZM60.24,51.65l14.01-24.27,14.01,24.27h-28.02ZM90.28,55.15l17.3,29.96H40.92l17.3-29.96h32.06ZM129.23,60.99c0,30.31-24.66,54.98-54.98,54.98s-54.98-24.66-54.98-54.98c0-1.97.11-3.92.31-5.84h34.67l-19.28,33.4h78.56l-19.28-33.4h34.67c.2,1.92.31,3.87.31,5.84Z"/>
</svg>