<svg width="215" height="21" viewBox="0 0 215 21" fill="none" xmlns="http://www.w3.org/2000/svg">
<path d="M107.092 0.359619L106.425 4.15002H115.862L112.954 20.649H117.88L120.79 4.15002H130.198L130.867 0.359619H107.092Z" fill="black"/>
<path d="M21.7355 10.0622C19.763 9.18916 16.7655 8.89777 13.6068 8.65415L12.4182 8.56603C8.08693 8.27092 6.18894 7.93432 6.18894 5.94578C6.18894 3.81962 8.98285 3.64153 11.6018 3.64153C14.4914 3.64153 17.2705 3.88171 18.0334 5.62234L18.1205 5.82161H23.5949L23.4711 5.39618C22.2575 1.22154 16.3798 0.345215 11.6626 0.345215C8.19593 0.345215 5.36783 0.868922 3.48414 1.85969C1.66597 2.81684 0.74401 4.19184 0.74401 5.94578C0.74401 9.83031 3.85407 11.5961 11.4794 12.042L12.502 12.1002C17.2042 12.3969 19.1122 12.6042 19.1122 14.7794C19.1122 17.1548 16.3748 17.3435 12.7964 17.3435C11.3735 17.3435 7.04352 17.3435 6.06977 15.0199L5.98423 14.8159H0.498535L0.590031 15.2219C1.43566 18.9709 5.28958 20.6428 13.0858 20.6431H13.0885C21.127 20.6431 24.557 18.8113 24.557 14.5195C24.557 12.2988 23.6867 10.9242 21.7358 10.0628L21.7355 10.0622Z" fill="black"/>
<path d="M100.514 0.351074V10.1758C100.514 14.4573 97.9388 16.8153 93.2635 16.8153C88.6371 16.8153 85.9839 14.3953 85.9839 10.1758V0.351074H81.0597V10.4204C81.0597 13.9469 82.0148 16.4653 83.9793 18.1198C85.9732 19.7982 89.01 20.614 93.2635 20.6143H93.2662C97.5195 20.6143 100.556 19.7982 102.551 18.1198C104.515 16.4653 105.47 13.9469 105.47 10.4204V0.351074H100.514Z" fill="black"/>
<path d="M144.692 16.8793L147.607 0.351074H142.718L139.139 20.6432H158.476L159.141 16.8793H144.692Z" fill="black"/>
<path d="M181.512 0.351583H177.506L177.492 0.305664L177.463 0.351583H173.515L159.36 20.6357H164.998L168.056 16.2678H181.433L182.843 20.4101L182.923 20.6357H188.484L181.51 0.351583H181.512ZM170.233 12.8997L177.259 1.90697L180.407 12.8997H170.233Z" fill="black"/>
<path d="M214.37 5.76739C214.558 4.70038 214.691 3.1447 213.694 1.95767C212.8 0.891804 211.142 0.351074 208.767 0.351074H192.944L189.367 20.6432H206.544C210.981 20.6432 213.336 19.0104 213.954 15.5041C214.166 14.3025 213.917 13.2758 213.212 12.4524C212.152 11.2125 210.265 10.6915 208.786 10.4732C210.856 10.0879 213.805 8.97486 214.37 5.76739ZM196.756 9.1737L197.703 3.80145H206.043C206.794 3.80145 208.053 3.80145 208.654 4.51713C208.999 4.92826 209.1 5.55668 208.954 6.38479C208.464 9.1737 206.111 9.1737 204.98 9.1737H196.756ZM208.501 14.4352C208.015 17.195 205.743 17.195 204.774 17.195H195.343L196.296 11.7907H205.843C206.414 11.7907 207.598 11.7907 208.188 12.4923C208.547 12.9199 208.653 13.5732 208.501 14.4352Z" fill="black"/>
<path d="M69.0716 0.339355C59.9892 0.339355 53.2269 6.96831 53.2269 12.7448C53.2269 16.9258 56.7404 20.6941 63.536 20.6941C72.5526 20.6941 79.2153 14.0376 79.2153 8.28866C79.2153 4.35535 76.1326 0.339355 69.0716 0.339355ZM62.873 19.0905C58.6843 19.0905 57.805 16.6269 57.805 14.56C57.805 11.9952 59.1787 8.83669 61.3898 6.31657C62.823 4.68308 65.8435 1.94266 69.9668 1.94266C72.9571 1.94266 74.6039 3.42481 74.6039 6.11587C74.6039 10.5197 70.4632 19.0905 62.873 19.0905Z" fill="black"/>
<path d="M47.1703 11.6248L47.0842 12.0819C46.309 15.326 43.1378 17.3414 38.8078 17.3414C32.9445 17.3414 30.3202 13.8535 30.3202 10.3964C30.3202 6.3886 33.7569 3.69539 38.8716 3.69539C42.9461 3.69539 45.8642 5.28168 46.8779 8.04799L47.0222 8.43766H51.9211L51.6935 7.67048C50.3185 3.02406 45.6452 0.358887 38.8716 0.358887C30.8385 0.358887 25.4409 4.41179 25.4409 10.4438C25.4409 16.4758 30.9104 20.6746 38.7416 20.6746C45.8575 20.6746 50.788 17.5627 51.9311 12.3484L52.0862 11.6245H47.1707L47.1703 11.6248Z" fill="black"/>
</svg>
