<svg width="272" height="86" viewBox="0 0 272 86" fill="none" xmlns="http://www.w3.org/2000/svg">
<path d="M266.463 71.0795C268.29 67.3398 268.29 64.4523 268.29 55.3066V33.5172C268.29 25.8852 266.763 18.1406 262.279 13.6358C257.794 9.13101 250.348 0 239.896 0C227.697 0 223.198 6.43632 221.673 14.5008C221.673 14.5008 214.758 6.14196 210.507 3.80327C207.65 2.23154 202.403 0.826832 195.031 0.826832H178.95V12.7709C178.95 12.7709 173.904 7.21912 170.67 4.61737C167.436 2.01562 164.394 0.0127324 158.357 0C151.526 0.0127324 147.494 2.35317 145.137 5.68581L139.365 0.826832H122.893L122.339 5.71127L117.499 0.826832H103.851L103.296 5.69854L98.4693 0.826832H81.9976L90.517 68.9043L99.969 78.4443H117.146L117.978 71.5628L123.12 78.4443H142.188L143.247 69.9728L153.518 78.5207H183.071V73.0638L188.402 78.4443H205.075V75.0608L208.427 78.4443H225.113V64.0071C225.113 64.0071 232.984 73.2344 236.443 75.4933C239.903 77.7522 243.337 79.3093 249.298 79.3093C250.826 79.2869 253.835 78.9023 253.835 78.9023L264.333 86L272 75.026L266.463 71.0795Z" fill="black"/>
<path fill-rule="evenodd" clip-rule="evenodd" d="M45.1553 10.1838C44.6764 11.6974 44.4496 13.262 44.4496 14.852L44.5126 25.5495C44.5 27.1268 44.752 28.7041 45.2561 30.205C45.7224 31.6551 46.466 32.9907 47.449 34.1482C48.4446 35.3312 49.6923 36.2598 51.1037 36.8958C52.6917 37.5954 54.4056 37.9388 56.1448 37.9134C57.9218 37.9515 59.6862 37.6081 61.3119 36.8958C62.7108 36.2598 63.9584 35.3312 64.9667 34.1609C65.9497 33.0035 66.6932 31.6679 67.1469 30.2178C67.6258 28.7041 67.8653 27.1395 67.8653 25.5495V14.8265C67.8653 13.2365 67.6258 11.672 67.1343 10.1583C66.668 8.70819 65.9245 7.3726 64.9414 6.21511C63.9332 5.04482 62.6856 4.11628 61.2867 3.48028C59.661 2.76796 57.9092 2.4245 56.1448 2.46269C54.3552 2.4245 52.5909 2.76796 50.9525 3.49301C49.5536 4.12901 48.3186 5.05755 47.3104 6.22785C46.3399 7.38533 45.5964 8.73365 45.1553 10.1838ZM53.8889 28.5896C53.3848 27.9027 53.1202 27.0632 53.158 26.2109L53.1076 14.1397C53.1076 13.7071 53.1706 13.2747 53.2966 12.8677C53.41 12.4733 53.6117 12.1171 53.8637 11.7991C54.1284 11.4939 54.4561 11.2395 54.8089 11.0487C55.6407 10.6799 56.5733 10.6799 57.4051 11.0487C57.7705 11.2268 58.0856 11.4811 58.3503 11.7991C58.6023 12.1171 58.7914 12.4733 58.9174 12.8677C59.0434 13.2747 59.1064 13.7071 59.1064 14.1397V26.2745C59.1064 26.707 59.0434 27.1395 58.9174 27.5465C58.804 27.9282 58.6149 28.2843 58.3629 28.5896C58.1108 28.8948 57.7957 29.1365 57.4303 29.3019C57.027 29.4673 56.5985 29.5563 56.17 29.5563C55.3004 29.6199 54.4561 29.2638 53.8889 28.5896Z" fill="black"/>
<path fill-rule="evenodd" clip-rule="evenodd" d="M15.4508 4.26891C15.3752 3.77281 15.7155 3.31491 16.207 3.2386C16.2247 3.2386 16.2431 3.2379 16.2618 3.23697L16.2844 3.2358C16.3388 3.23301 16.3958 3.23013 16.4464 3.2386H26.705C28.2929 3.2386 29.8809 3.50567 31.3806 4.03996C32.7795 4.53598 34.065 5.29923 35.1614 6.30409C36.2452 7.30902 37.1022 8.54282 37.6819 9.9166C38.3246 11.443 38.6271 13.0966 38.6019 14.7502V25.5749C38.6271 27.2413 38.3246 28.8821 37.6819 30.4213C37.1022 31.795 36.2452 33.0288 35.1614 34.0337C34.065 35.0259 32.7795 35.7891 31.3806 36.2852C29.8935 36.8321 28.3308 37.0993 26.7554 37.0993H16.4464C15.9676 37.1629 15.5139 36.8321 15.4508 36.3361V4.26891ZM26.5916 28.7549C27.0201 28.7549 27.4486 28.6532 27.8518 28.4878C28.2551 28.3224 28.6206 28.0807 28.9231 27.7755C29.2255 27.4702 29.465 27.1014 29.6288 26.707C29.8053 26.2873 29.8935 25.8294 29.8935 25.3714V15.0046C29.9439 14.0506 29.5784 13.1221 28.8979 12.4606C28.2551 11.9518 27.4486 11.672 26.6294 11.672H24.1089V28.7549H26.5916Z" fill="black"/>
<path d="M57.9974 44.8713C57.5059 44.9476 57.1782 45.4055 57.2538 45.8888V77.9941C57.3168 78.4775 57.7579 78.8082 58.2369 78.7447H75.6159C76.1704 78.7447 76.4603 78.4139 76.4603 77.7525V71.3925C76.4603 70.731 76.1704 70.4003 75.6159 70.4003H65.9623V66.0119H72.9693C73.5869 66.0119 73.8893 65.6684 73.8893 65.007V58.7106C73.8893 58.011 73.5869 57.6676 72.9693 57.6676H65.9623V53.2537H75.326C75.8553 53.2537 76.12 52.923 76.12 52.2488V45.8888C76.12 45.202 75.8553 44.8713 75.326 44.8713H58.2369C58.1612 44.8585 58.073 44.8713 57.9974 44.8713Z" fill="black"/>
<path d="M0 45.8888C0 45.2019 0.27726 44.8712 0.844375 44.8712H20.6431C20.8826 44.8585 21.1094 44.9475 21.2607 45.1256C21.4245 45.3418 21.5001 45.609 21.4875 45.8888V52.2488C21.5127 52.5287 21.4245 52.7958 21.2607 53.012C21.1094 53.1901 20.8826 53.2918 20.6431 53.2792H15.1232V77.7397C15.1232 78.4012 14.8207 78.7319 14.2284 78.7319H7.22131C6.692 78.7319 6.42736 78.4012 6.42736 77.7397V53.2282H0.844375C0.27726 53.2282 0 52.8848 0 52.1979V45.8888Z" fill="black"/>
<path d="M26.5664 45.8888C26.5664 45.202 26.894 44.8713 27.5368 44.8713H34.2414C34.9345 44.8713 35.2748 45.202 35.2748 45.8888V57.0697H41.1098V45.8888C41.1098 45.6217 41.2107 45.3673 41.3871 45.1765C41.5887 44.9603 41.8786 44.8585 42.1685 44.8713H48.8731C49.0873 44.8713 49.3016 44.9348 49.4906 45.0493C49.7049 45.1638 49.8183 45.4309 49.8183 45.838V77.7397C49.8183 78.4012 49.4528 78.7319 48.7344 78.7319H42.1685C41.8912 78.7446 41.614 78.6683 41.3871 78.4902C41.1855 78.2867 41.0846 78.0196 41.1098 77.7397V65.4522H35.2874V77.7397C35.2874 78.4012 34.9471 78.7319 34.254 78.7319H27.5368C27.0579 78.7955 26.6294 78.4521 26.5664 77.9687V45.8888Z" fill="black"/>
<path fill-rule="evenodd" clip-rule="evenodd" d="M253.124 62.0814L252.456 63.2262L257.724 67.0422L253.742 72.728L244.819 66.686C244.819 66.686 242.253 67.1312 239.425 67.1312C224.541 67.1312 223.281 57.146 223.281 46.016V24.2012C223.281 9.00077 227.805 3.08596 239.425 3.08596C251.045 3.08596 255.569 8.93717 255.569 24.2012V45.927C255.569 56.3319 255.569 57.9347 253.124 62.0814ZM244.579 46.0976L244.58 46.016V24.2012C244.58 18.3373 244.58 12.7532 239.45 12.7532C234.321 12.7532 234.321 18.2864 234.321 24.2012V46.016C234.321 51.8799 234.346 57.464 239.45 57.464C244.531 57.464 244.554 51.9566 244.579 46.0976Z" fill="#E1DFDE"/>
<path d="M121.2 37.4809H118.465L114.545 3.91279H105.938L102.081 37.4428H99.3719L95.5029 3.91279H84.7654L92.5665 66.2409H104.741L108.862 34.8224H111.533L115.73 66.279H128.849L135.705 3.95095H124.98L121.2 37.4809Z" fill="#E1DFDE"/>
<path fill-rule="evenodd" clip-rule="evenodd" d="M213.476 20.3216C213.476 10.1456 212.556 3.95091 194.572 3.95091H181.34V66.279H192.354V35.9926H193.766C201.327 35.9926 201.327 39.3126 201.327 47.3262L201.353 66.279H212.367V47.7459C212.367 38.0436 211.586 37.3033 209.508 35.3331L207.238 33.0925L209.028 32.024C211.321 30.6629 213.476 29.3782 213.476 20.3216ZM193.766 27.2031H192.379V13.5291H193.791C200.092 13.5291 202.462 13.5291 202.462 20.2834C202.462 27.0377 200.496 27.2031 193.766 27.2031Z" fill="#E1DFDE"/>
<path fill-rule="evenodd" clip-rule="evenodd" d="M161.717 3.54389C160.608 3.35309 159.373 3.25133 158.012 3.25133C147.022 3.25133 144.502 9.90389 144.502 19.304V35.0641C144.502 45.8252 147.212 50.9132 157.949 50.9132C165.057 50.9132 170.199 48.56 171.207 37.9134C171.295 36.6541 171.358 35.293 171.383 33.8175H160.381C160.381 40.6863 160.306 42.6198 157.861 42.6198C155.416 42.6198 155.34 39.8723 155.34 35.0768V28.4878H171.409V19.304C171.409 11.0233 169.48 4.95581 161.73 3.54389H161.717ZM160.533 21.3265H155.491V20.665C155.491 14.623 155.491 11.0614 158.012 11.0614C160.533 11.0614 160.533 14.623 160.533 20.6523V21.3265Z" fill="#E1DFDE"/>
<path d="M144.603 56.6754H171.169V66.2154H144.603V56.6754Z" fill="#E1DFDE"/>
</svg>
