<?xml version="1.0" encoding="utf-8"?>
<svg xmlns="http://www.w3.org/2000/svg" viewBox="6.2072 227.269 529.5595 108.46" width="529.5595px" height="108.46px">
  <g transform="matrix(1, 0, 0, 1, -132.33277893066406, 205.19898223876953)">
    <rect class="cls-1" x="138.54" y="67.64" width="133.43" height="3.25" style="fill: #071a2b;"/>
    <path class="cls-1" d="M205.26,25.31c28.12,0,50.99,22.87,50.99,50.99s-22.87,50.99-50.99,50.99-50.99-22.87-50.99-50.99,22.87-50.99,50.99-50.99M205.26,22.07c-29.95,0-54.23,24.28-54.23,54.23s24.28,54.23,54.23,54.23,54.23-24.28,54.23-54.23-24.28-54.23-54.23-54.23h0Z" style="fill: #071a2b;"/>
    <path class="cls-1" d="M205.26,45.13l30.91,53.54h-61.82l30.91-53.54M205.26,38.76l-36.43,63.1h72.86l-36.43-63.1h0Z" style="fill: #071a2b;"/>
  </g>
  <g transform="matrix(1, 0, 0, 1, 15.523101806640625, 192.7341079711914)">
    <g transform="matrix(1.34692, 0, 0, 1.332433, 54.466427, -213.685257)" style="">
      <path class="cls-1" d="M70.94,259.57l-2.15-3.08c-.13.02-.27.02-.4.02h-2.37v3.06h-1.95v-10.5h4.32c2.76,0,4.47,1.41,4.47,3.74,0,1.59-.81,2.76-2.24,3.31l2.42,3.45h-2.1ZM68.3,250.73h-2.28v4.18h2.28c1.71,0,2.6-.78,2.6-2.1s-.89-2.08-2.6-2.08Z" style="fill: #071a2b;"/>
      <path class="cls-1" d="M88.61,257.94v1.63h-7.88v-10.5h7.67v1.64h-5.71v2.73h5.07v1.6h-5.07v2.9h5.92Z" style="fill: #071a2b;"/>
      <path class="cls-1" d="M95.6,258.46l.67-1.51c.84.67,2.18,1.16,3.47,1.16,1.63,0,2.32-.58,2.32-1.37,0-2.26-6.24-.78-6.24-4.68,0-1.7,1.35-3.13,4.23-3.13,1.26,0,2.58.33,3.5.93l-.62,1.51c-.95-.55-1.98-.82-2.89-.82-1.62,0-2.28.63-2.28,1.42,0,2.23,6.22.78,6.22,4.63,0,1.68-1.36,3.12-4.24,3.12-1.64,0-3.27-.51-4.14-1.26Z" style="fill: #071a2b;"/>
      <path class="cls-1" d="M119.5,257.94v1.63h-7.88v-10.5h7.67v1.64h-5.71v2.73h5.07v1.6h-5.07v2.9h5.92Z" style="fill: #071a2b;"/>
      <path class="cls-1" d="M134.18,257.15h-5.25l-1.03,2.43h-2.01l4.73-10.5h1.92l4.74,10.5h-2.04l-1.05-2.43ZM133.54,255.61l-1.98-4.59-1.96,4.59h3.95Z" style="fill: #071a2b;"/>
      <path class="cls-1" d="M151.18,259.57l-2.15-3.08c-.13.02-.27.02-.4.02h-2.37v3.06h-1.95v-10.5h4.32c2.76,0,4.47,1.41,4.47,3.74,0,1.59-.81,2.76-2.24,3.31l2.42,3.45h-2.1ZM148.54,250.73h-2.28v4.18h2.28c1.71,0,2.6-.78,2.6-2.1s-.89-2.08-2.6-2.08Z" style="fill: #071a2b;"/>
      <path class="cls-1" d="M160.22,254.32c0-3.13,2.4-5.4,5.62-5.4,1.71,0,3.18.62,4.15,1.75l-1.26,1.18c-.76-.82-1.71-1.23-2.8-1.23-2.17,0-3.75,1.53-3.75,3.69s1.58,3.69,3.75,3.69c1.09,0,2.04-.41,2.8-1.25l1.26,1.2c-.97,1.14-2.44,1.75-4.17,1.75-3.21,0-5.61-2.27-5.61-5.4Z" style="fill: #071a2b;"/>
      <path class="cls-1" d="M186.91,249.07v10.5h-1.95v-4.5h-5.43v4.5h-1.95v-10.5h1.95v4.33h5.43v-4.33h1.95Z" style="fill: #071a2b;"/>
      <path class="cls-1" d="M210.74,259.74l-1.32-1.28c-.95.81-2.14,1.26-3.52,1.26-2.22,0-3.83-1.16-3.83-2.81,0-1.3.72-2.22,2.43-3.18-.85-.85-1.17-1.54-1.17-2.31,0-1.47,1.2-2.47,3.04-2.47,1.7,0,2.8.88,2.8,2.31,0,1.08-.63,1.86-2.14,2.71l2.26,2.16c.25-.5.45-1.1.58-1.77l1.52.5c-.2.92-.51,1.72-.95,2.4l1.32,1.26-1.03,1.21ZM208.31,257.4l-2.77-2.66c-1.21.67-1.63,1.23-1.63,1.98,0,.87.84,1.47,2.13,1.47.87,0,1.63-.27,2.28-.79ZM205.04,251.4c0,.46.2.81.95,1.56,1.21-.66,1.6-1.1,1.6-1.67,0-.6-.43-1-1.21-1-.84,0-1.33.46-1.33,1.11Z" style="fill: #071a2b;"/>
      <path class="cls-1" d="M225.71,258.46l.67-1.51c.84.67,2.18,1.16,3.47,1.16,1.63,0,2.32-.58,2.32-1.37,0-2.26-6.24-.78-6.24-4.68,0-1.7,1.35-3.13,4.23-3.13,1.26,0,2.58.33,3.5.93l-.62,1.51c-.95-.55-1.98-.82-2.89-.82-1.62,0-2.28.63-2.28,1.42,0,2.23,6.22.78,6.22,4.63,0,1.68-1.36,3.12-4.24,3.12-1.64,0-3.27-.51-4.14-1.26Z" style="fill: #071a2b;"/>
      <path class="cls-1" d="M243.71,250.73h-3.48v-1.65h8.91v1.65h-3.48v8.85h-1.95v-8.85Z" style="fill: #071a2b;"/>
      <path class="cls-1" d="M263.18,259.57l-2.14-3.08c-.14.02-.27.02-.41.02h-2.37v3.06h-1.95v-10.5h4.32c2.76,0,4.47,1.41,4.47,3.74,0,1.59-.81,2.76-2.23,3.31l2.41,3.45h-2.1ZM260.54,250.73h-2.28v4.18h2.28c1.71,0,2.59-.78,2.59-2.1s-.88-2.08-2.59-2.08Z" style="fill: #071a2b;"/>
      <path class="cls-1" d="M279.79,257.15h-5.25l-1.03,2.43h-2.01l4.73-10.5h1.92l4.74,10.5h-2.04l-1.05-2.43ZM279.14,255.61l-1.98-4.59-1.96,4.59h3.95Z" style="fill: #071a2b;"/>
      <path class="cls-1" d="M291.52,250.73h-3.48v-1.65h8.91v1.65h-3.48v8.85h-1.95v-8.85Z" style="fill: #071a2b;"/>
      <path class="cls-1" d="M311.99,257.94v1.63h-7.87v-10.5h7.66v1.64h-5.71v2.73h5.07v1.6h-5.07v2.9h5.92Z" style="fill: #071a2b;"/>
      <path class="cls-1" d="M326.99,254.2h1.85v4.19c-1.1.88-2.62,1.33-4.11,1.33-3.25,0-5.65-2.27-5.65-5.4s2.4-5.4,5.68-5.4c1.75,0,3.22.58,4.21,1.71l-1.23,1.2c-.82-.83-1.77-1.2-2.89-1.2-2.24,0-3.81,1.51-3.81,3.69s1.57,3.69,3.79,3.69c.75,0,1.48-.15,2.16-.54v-3.27Z" style="fill: #071a2b;"/>
      <path class="cls-1" d="M341.63,255.87v3.71h-1.95v-3.67l-4.12-6.83h2.08l3.08,5.12,3.1-5.12h1.92l-4.11,6.79Z" style="fill: #071a2b;"/>
    </g>
    <g transform="matrix(1, 0, 0, 1, 125.253593, -125.331131)">
      <path class="cls-1" d="M23.22,177.79v18.81h27.06v6.63h-27.06v21.82h-7.71v-53.97h38.09v6.71h-30.38Z" style="fill: #071a2b;"/>
      <path class="cls-1" d="M92.14,178.94l-20.28,46.11h-7.94l24.44-53.97h7.63l24.52,53.97h-8.1l-20.28-46.11Z" style="fill: #071a2b;"/>
      <path class="cls-1" d="M148.89,177.79h-18.5v-6.71h44.64v6.71h-18.5v47.26h-7.63v-47.26Z" style="fill: #071a2b;"/>
      <path class="cls-1" d="M242.19,171.08v53.97h-7.71v-24.06h-31v24.06h-7.71v-53.97h7.71v23.21h31v-23.21h7.71Z" style="fill: #071a2b;"/>
      <path class="cls-1" d="M261.42,198.06c0-15.81,12.18-27.6,28.76-27.6s28.61,11.72,28.61,27.6-12.18,27.6-28.61,27.6-28.76-11.8-28.76-27.6ZM311.07,198.06c0-11.95-8.94-20.74-20.89-20.74s-21.05,8.79-21.05,20.74,8.94,20.74,21.05,20.74,20.89-8.79,20.89-20.74Z" style="fill: #071a2b;"/>
      <path class="cls-1" d="M387.6,225.05l-.08-39.32-19.51,32.77h-3.55l-19.51-32.54v39.09h-7.4v-53.97h6.32l22.51,37.93,22.21-37.93h6.32l.08,53.97h-7.4Z" style="fill: #071a2b;"/>
    </g>
  </g>
</svg>